<?xml version="1.0" encoding="UTF-8" standalone="no"?>
<svg
   id="Capa_1"
   enable-background="new 0 0 510.619 510.619"
   height="511.99899"
   viewBox="0 0 368.22092 510.618"
   width="369.2168"
   version="1.1"
   sodipodi:docname="reshot-icon-google-maps-WBY8X5M4UL.svg"
   xmlns:inkscape="http://www.inkscape.org/namespaces/inkscape"
   xmlns:sodipodi="http://sodipodi.sourceforge.net/DTD/sodipodi-0.dtd"
   xmlns="http://www.w3.org/2000/svg"
   xmlns:svg="http://www.w3.org/2000/svg">
  <defs
     id="defs11" />
  <sodipodi:namedview
     id="namedview11"
     pagecolor="#ffffff"
     bordercolor="#000000"
     borderopacity="0.25"
     inkscape:showpageshadow="2"
     inkscape:pageopacity="0.0"
     inkscape:pagecheckerboard="0"
     inkscape:deskcolor="#d1d1d1">
    <inkscape:page
       x="0"
       y="6.9897833e-32"
       width="368.22092"
       height="510.61801"
       id="page2"
       margin="0"
       bleed="0" />
  </sodipodi:namedview>
  <path
     d="m 360.72092,184.11 c 0,-25.88 -5.56,-50.46 -15.56,-72.6 l -0.01,0.01 -161.54,114.195 -73.97,156.335 30.97,42.79 c 3.08,4.25 5.55,8.9 7.35,13.83 l 19.04,52.28 c 5.93,16.3 29.02,16.2 34.83,-0.15 l 18.41,-51.88 c 1.81,-5.09 4.34,-9.9 7.5,-14.27 l 94.16,-130.07 h -0.01 c 24.28,-30.25 38.83,-68.66 38.83,-110.47 z"
     fill="#00c89e"
     id="path1" />
  <path
     d="M 183.80092,7.5 C 130.59092,7.59 82.750919,31.49 50.390919,69.04 l 77.970001,66.7 65.914,9.803 39.546,-130.943 c -15.86,-4.65 -32.65,-7.13 -50.02,-7.1 z"
     fill="#00abf2"
     id="path2" />
  <path
     d="m 233.82092,14.6 -153.097001,175.865 92.799001,118.204 171.628,-197.149 0.01,-0.01 c -21.02,-46.56 -61.64,-82.37 -111.34,-96.91 z"
     fill="#00c3ff"
     id="path3" />
  <g
     id="XMLID_114_"
     transform="translate(-71.199081)">
    <g
       id="g8">
      <path
         d="m 296.127,424.84 -30.97,-42.79 -50.99,-70.437 -33.327,70.437 30.97,42.79 c 3.08,4.25 5.55,8.9 7.35,13.83 l 19.04,52.28 c 5.93,16.3 29.02,16.2 34.83,-0.15 l 18.41,-51.88 c 1.519,-4.273 3.552,-8.344 6.033,-12.128 -0.436,-0.658 -0.882,-1.311 -1.346,-1.952 z"
         fill="#00ab7e"
         id="path4" />
      <path
         d="m 121.59,69.04 c -26.83,31.1 -43.03,71.58 -42.89,115.65 0.09,25.66 5.64,50.02 15.58,71.99 l 70.005,-27.724 35.225,-93.146 0.05,-0.07 z"
         fill="#ff4f80"
         id="path5" />
      <path
         d="m 163.017,184.69 c -0.077,-24.249 4.802,-47.407 13.669,-68.518 L 121.59,69.04 c -26.83,31.1 -43.03,71.58 -42.89,115.65 0.09,25.66 5.64,50.02 15.58,71.99 l 70.005,-27.724 2.749,-7.27 c -2.587,-11.926 -3.973,-24.301 -4.017,-36.996 z"
         fill="#ff1146"
         id="path6" />
      <path
         d="M 311.11,232.4 199.51,135.81 166.043,174.251 94.28,256.68 c 6.15,13.64 13.99,26.37 23.25,37.9 h -0.01 l 63.32,87.47 130.27,-149.65 c -2.386,2.756 0,0 0,0 z"
         fill="#ffdc5a"
         id="path7" />
      <path
         d="m 201.837,294.58 h 0.01 c -9.26,-11.53 -17.1,-24.26 -23.25,-37.9 -9.94,-21.97 -15.49,-46.33 -15.58,-71.99 -0.008,-2.382 0.042,-4.751 0.129,-7.111 L 94.28,256.68 c 6.15,13.64 13.99,26.37 23.25,37.9 h -0.01 l 63.32,87.47 46.034,-52.883 z"
         fill="#ffc027"
         id="path8" />
    </g>
    <g
       id="g9">
      <path
         d="m 199.51,135.81 c 13.53,-15.63 33.51,-25.51 55.8,-25.51 40.76,0 73.8,33.05 73.8,73.81 0,18.47 -6.78,35.35 -18,48.29 -13.53,15.63 -33.51,25.51 -55.8,25.51 -40.76,0 -73.8,-33.04 -73.8,-73.8 0,-18.47 6.78,-35.35 18,-48.3 z"
         fill="#ffffff"
         id="path9" />
    </g>
  </g>
  <path
     d="m 134.70792,69.04 c 23.617,-27.405 55.486,-47.526 91.664,-56.44 -13.637,-3.352 -27.896,-5.125 -42.571,-5.1 -53.21,0.09 -101.050001,23.99 -133.410001,61.54 l 55.096001,47.132 c 7.247,-17.255 17.154,-33.144 29.221,-47.132 z"
     fill="#008cc9"
     id="path10" />
  <path
     d="M 351.99692,108.424 C 329.82692,59.318 287.52192,22.497 235.93092,7.404 219.17492,2.491 201.74492,0 184.11392,0 c -0.108,0 -0.218,0 -0.326,0 C 130.45392,0.09 79.761919,23.47 44.711919,64.141 15.738919,97.726 -0.13908163,140.546 9.1836629e-4,184.717 0.09291837,210.894 5.5589184,236.146 16.243919,259.763 c 6.318,14.012 14.398,27.211 24.019,39.238 l 94.276001,130.24 c 2.669,3.683 4.814,7.72 6.375,11.995 l 19.039,52.277 c 3.784,10.4 13.362,17.105 24.423,17.105 h 0.103 c 11.113,-0.042 20.699,-6.835 24.421,-17.311 l 18.408,-51.875 c 1.571,-4.419 3.762,-8.587 6.509,-12.385 l 74.155,-102.437 c 2.429,-3.355 1.678,-8.044 -1.677,-10.473 -3.356,-2.43 -8.044,-1.678 -10.473,1.677 l -74.158,102.439 c -3.584,4.957 -6.44,10.391 -8.491,16.157 l -18.409,51.877 c -1.913,5.383 -6.597,7.316 -10.342,7.33 -1.803,-0.042 -7.921,-0.494 -10.374,-7.235 l -19.042,-52.286 c -2.039,-5.584 -4.839,-10.853 -8.319,-15.655 l -27.478,-37.961 38.632,-44.379 c 2.72,-3.124 2.392,-7.862 -0.732,-10.581 -3.125,-2.72 -7.862,-2.393 -10.581,0.732 l -36.347,41.754 -57.576001,-79.54 c -0.131,-0.2 -0.273,-0.396 -0.425,-0.584 -7.925,-9.869 -14.711,-20.604 -20.23,-31.968 l 71.277001,-81.87 c -0.266,2.67 -0.414,5.359 -0.414,8.063 0,44.829 36.471,81.3 81.3,81.3 6.5,0 12.908,-0.781 19.106,-2.279 l -35.457,40.732 c -2.72,3.124 -2.392,7.862 0.732,10.581 1.421,1.237 3.175,1.843 4.921,1.843 2.094,0 4.177,-0.872 5.66,-2.576 l 163.755,-188.1 c 6.893,18.654 10.393,38.278 10.393,58.499 0,38.896 -12.856,75.473 -37.179,105.775 -0.151,0.188 -0.292,0.382 -0.422,0.581 l -0.817,1.128 c -2.43,3.355 -1.68,8.044 1.675,10.474 3.355,2.43 8.043,1.679 10.474,-1.675 l 1.007,-1.39 c 25.965,-32.479 40.26,-73.265 40.26,-114.89 0,-26.386 -5.459,-51.851 -16.224,-75.686 z M 183.81392,15 c 12.278,-0.02 24.465,1.277 36.355,3.86 l -27.715,31.836 c -2.72,3.124 -2.392,7.861 0.732,10.581 1.42,1.237 3.175,1.843 4.921,1.843 2.094,0 4.177,-0.872 5.66,-2.576 l 32.507,-37.34 c 43.805,14.165 79.864,45.552 100.022,87.064 l -71.298,81.894 c 0.265,-2.666 0.413,-5.352 0.413,-8.053 0,-44.834 -36.471,-81.31 -81.3,-81.31 -6.504,0 -12.915,0.782 -19.116,2.282 l 17.778,-20.421 c 2.72,-3.125 2.392,-7.862 -0.732,-10.582 -3.124,-2.72 -7.861,-2.392 -10.581,0.732 l -43.873,50.396 L 61.123919,68.349 C 93.046919,34.439 137.33792,15.079 183.81392,15 Z M 15.000919,184.667 c -0.121,-38.07 12.725,-75.054 36.316,-104.964 l 66.426001,56.824 -92.335001,106.058 c -6.833,-18.464 -10.337,-37.892 -10.407,-57.918 z M 117.81092,184.11 c 0,-15.946 5.742,-31.355 16.168,-43.389 0,-0.001 0.001,-0.001 0.002,-0.002 12.608,-14.565 30.879,-22.919 50.129,-22.919 36.558,0 66.3,29.747 66.3,66.31 0,15.949 -5.741,31.354 -16.17,43.381 -12.608,14.565 -30.879,22.918 -50.129,22.918 -36.558,0.001 -66.3,-29.741 -66.3,-66.299 z"
     id="path11" />
</svg>
