<?xml version="1.0" encoding="UTF-8" standalone="no"?>
<!-- Created with Inkscape (http://www.inkscape.org/) -->

<svg
   width="210mm"
   height="148mm"
   viewBox="0 0 210 148"
   version="1.1"
   id="svg1"
   inkscape:version="1.3.1 (9b9bdc1480, 2023-11-25, custom)"
   sodipodi:docname="full logo for dark background.svg"
   xmlns:inkscape="http://www.inkscape.org/namespaces/inkscape"
   xmlns:sodipodi="http://sodipodi.sourceforge.net/DTD/sodipodi-0.dtd"
   xmlns="http://www.w3.org/2000/svg"
   xmlns:svg="http://www.w3.org/2000/svg">
  <sodipodi:namedview
     id="namedview1"
     pagecolor="#ababab"
     bordercolor="#000000"
     borderopacity="0.25"
     inkscape:showpageshadow="2"
     inkscape:pageopacity="0.0"
     inkscape:pagecheckerboard="0"
     inkscape:deskcolor="#d1d1d1"
     inkscape:document-units="mm"
     inkscape:zoom="0.38646094"
     inkscape:cx="263.93353"
     inkscape:cy="891.42256"
     inkscape:window-width="1920"
     inkscape:window-height="1016"
     inkscape:window-x="0"
     inkscape:window-y="0"
     inkscape:window-maximized="1"
     inkscape:current-layer="layer1" />
  <defs
     id="defs1" />
  <g
     inkscape:label="Layer 1"
     inkscape:groupmode="layer"
     id="layer1">
    <g
       id="g546"
       transform="matrix(5.0485194,0,0,5.0485194,-23.976795,-134.51478)">
      <g
         id="g2505"
         style="fill:#ffffff;fill-opacity:1;stroke:none"
         transform="matrix(0.1778059,0,0,0.1778059,5.0342148,11.278901)">
        <path
           id="path2495"
           style="fill:#b2846d;fill-opacity:1;stroke:none;stroke-width:0.5;stroke-linecap:round;stroke-dasharray:none;paint-order:stroke fill markers"
           d="m 112.57556,152.23825 c -9.13354,0 -16.486335,7.3528 -16.486335,16.48633 v 8.78293 a 47.409134,47.409134 0 0 0 18.450035,3.77031 47.409134,47.409134 0 0 0 43.67434,-29.03957 z m 11.21998,6.54637 a 7.5388746,7.5388746 0 0 1 7.53908,7.53908 7.5388746,7.5388746 0 0 1 -7.53908,7.53907 7.5388746,7.5388746 0 0 1 -7.53855,-7.53907 7.5388746,7.5388746 0 0 1 7.53855,-7.53908 z" />
        <rect
           style="fill:#ffffff;fill-opacity:1;stroke:none;stroke-width:0.352778;stroke-linecap:round;stroke-dasharray:none;paint-order:stroke fill markers"
           id="rect2497"
           width="94.818268"
           height="9.9340487"
           x="67.130287"
           y="123.97453"
           ry="4.9670243" />
        <rect
           style="fill:#ffffff;fill-opacity:1;stroke:none;stroke-width:0.352778;stroke-linecap:round;stroke-dasharray:none;paint-order:stroke fill markers"
           id="rect2499"
           width="81.612488"
           height="8.5504875"
           x="73.65155"
           y="106.32208"
           ry="4.2752438" />
        <rect
           style="fill:#ffffff;fill-opacity:1;stroke:none;stroke-width:0.352778;stroke-linecap:round;stroke-dasharray:none;paint-order:stroke fill markers"
           id="rect2501"
           width="56.268368"
           height="5.8952007"
           x="86.323608"
           y="94.186333"
           ry="2.9476004" />
        <rect
           style="fill:#ffffff;fill-opacity:1;stroke:none;stroke-width:0.352778;stroke-linecap:round;stroke-dasharray:none;paint-order:stroke fill markers"
           id="rect2503"
           width="28.037485"
           height="2.9374692"
           x="100.43905"
           y="88.421227"
           ry="1.4687346" />
      </g>
      <path
         d="m 10.47937,48.623829 q 0.215379,0 0.364333,0.0624 l 0.138889,0.05837 q 0.01812,0.0081 0.03623,0.0081 0.02415,0 0.04831,-0.02013 l 0.02818,-0.02416 q 0.006,-0.0081 0.02214,-0.0081 0.05032,-0.002 0.05032,0.09863 0,0.03422 0.02617,0.203302 l 0.03221,0.207327 q 0.01006,0.06643 0.01006,0.08253 0,0.0624 -0.04227,0.0624 -0.03221,0 -0.06441,-0.09662 -0.07246,-0.217391 -0.295895,-0.358293 -0.221417,-0.140902 -0.49517,-0.140902 -0.217391,0 -0.3643318,0.128824 -0.1449278,0.126812 -0.1449278,0.318036 0,0.169083 0.094606,0.291869 0.082528,0.10467 0.1791466,0.152979 0.09863,0.04831 0.48108,0.175121 0.744767,0.243559 0.744767,0.799116 0,0.376409 -0.273752,0.615943 -0.273753,0.239533 -0.702497,0.239533 -0.154993,0 -0.342191,-0.04428 -0.1851849,-0.04428 -0.271739,-0.102657 -0.036232,-0.02415 -0.048309,-0.05032 -0.012077,-0.02818 -0.036232,-0.140902 -0.00403,-0.0161 -0.050322,-0.183172 -0.052335,-0.18116 -0.052335,-0.25765 0,-0.06039 0.040258,-0.05837 0.036232,0.002 0.064412,0.09863 0.072464,0.249598 0.3059586,0.41868 0.2334954,0.169082 0.5072474,0.169082 0.277778,0 0.469002,-0.163043 0.193237,-0.163044 0.193237,-0.396539 0,-0.22343 -0.177134,-0.376409 -0.09058,-0.0785 -0.52335,-0.223431 -0.4468607,-0.150966 -0.634059,-0.334139 -0.1851855,-0.183172 -0.1851855,-0.475041 0,-0.326087 0.2415463,-0.531401 0.2435592,-0.205315 0.6260072,-0.205315 z m 3.154192,0.265701 h -0.565621 q -0.08857,0 -0.112721,0.02416 -0.02214,0.02415 -0.02214,0.11876 v 1.972628 l 0.002,0.0785 q 0.01006,0.235508 0.263688,0.279792 0.07045,0.01208 0.07045,0.0463 0,0.04428 -0.05636,0.04428 -0.02415,0 -0.09863,-0.01208 -0.03824,-0.006 -0.18116,-0.006 l -0.146941,-0.002 -0.157005,0.002 q -0.08454,0 -0.142914,0.006 -0.114735,0.01208 -0.134864,0.01208 -0.06039,0 -0.06039,-0.04428 0,-0.03221 0.06643,-0.04026 0.154992,-0.02013 0.20934,-0.08454 0.05435,-0.06643 0.05435,-0.235508 v -1.994769 l -0.002,-0.05233 q 0,-0.07246 -0.02214,-0.09259 -0.02013,-0.02013 -0.09662,-0.02013 h -0.533415 q -0.163044,0 -0.23752,0.06643 -0.07246,0.06441 -0.112722,0.245572 -0.01812,0.0785 -0.05435,0.07649 -0.03623,-0.002 -0.03623,-0.05435 0,-0.04227 0.02416,-0.154992 0.03019,-0.144928 0.03019,-0.239533 0,-0.09259 0.02013,-0.120774 0.02214,-0.03019 0.09058,-0.03019 h 2.165865 q 0.110708,0 0.13285,0.02416 0.02416,0.02415 0.02416,0.142915 0,0.11876 0.01006,0.173108 0.01006,0.06844 0.01208,0.09863 0.002,0.06039 -0.04227,0.06441 -0.03623,0.002 -0.04831,-0.0624 -0.02617,-0.142915 -0.08454,-0.185185 -0.05837,-0.04428 -0.227456,-0.04428 z m 3.023355,1.378827 v -1.042675 q 0,-0.251611 -0.07246,-0.364332 -0.07246,-0.114735 -0.245572,-0.130838 -0.05837,-0.006 -0.05837,-0.04428 0,-0.04428 0.04026,-0.04227 0.04428,0.002 0.128825,0.0161 0.07649,0.01208 0.183172,0.01208 0.225443,0 0.277778,-0.006 0.07045,-0.006 0.08857,-0.006 0.03824,0 0.03824,0.03623 0,0.03019 -0.04227,0.04831 -0.122786,0.05032 -0.159018,0.140902 -0.03623,0.09058 -0.03623,0.342191 v 0.996378 q 0,0.549518 -0.219405,0.845412 -0.138889,0.187199 -0.398551,0.29992 -0.257649,0.110709 -0.551531,0.110709 -0.34219,0 -0.615943,-0.132851 -0.273752,-0.13285 -0.400564,-0.360306 -0.142915,-0.261675 -0.142915,-0.682368 v -1.022546 l -0.004,-0.114735 q 0,-0.215378 -0.06039,-0.295894 -0.05837,-0.08253 -0.237521,-0.108696 -0.05435,-0.0081 -0.05435,-0.04227 0,-0.04831 0.07649,-0.04831 0.05032,0 0.138889,0.004 0.09259,0.006 0.134863,0.006 l 0.154993,-0.002 h 0.152979 q 0.02415,0 0.112722,-0.0081 0.07448,-0.006 0.102657,-0.006 0.0463,0 0.0463,0.03221 0,0.03824 -0.06441,0.05032 -0.116748,0.02617 -0.157005,0.102657 -0.03824,0.07448 -0.03824,0.269727 l 0.004,0.13285 v 1.014495 q 0,0.519324 0.16103,0.740742 0.227457,0.31401 0.762884,0.31401 0.479067,0 0.716587,-0.261675 0.237521,-0.263688 0.237521,-0.793077 z m 1.092997,-1.1091 q 0,-0.203302 -0.06844,-0.297907 -0.06844,-0.09461 -0.227456,-0.110709 -0.06643,-0.006 -0.06643,-0.04227 0,-0.04026 0.05233,-0.04026 l 0.159018,0.0081 q 0.02416,0.002 0.140902,0.002 0.203302,0 0.316023,-0.01006 l 0.187199,-0.01812 q 0.120773,-0.01006 0.265701,-0.01006 0.825283,0 1.237924,0.414655 0.37641,0.378422 0.37641,0.968198 0,0.380435 -0.165057,0.698471 -0.165056,0.318036 -0.458938,0.501209 -0.370371,0.231481 -0.80918,0.231481 -0.05234,0 -0.185185,-0.01006 -0.269727,-0.01812 -0.469003,-0.01812 -0.215378,0 -0.374396,0.02214 -0.07246,0.01006 -0.114735,0.01208 -0.07045,0.004 -0.07045,-0.0463 0,-0.03422 0.05636,-0.0463 0.136876,-0.02818 0.177134,-0.100644 0.04026,-0.07246 0.04026,-0.295894 z m 0.307971,-0.163044 v 2.075285 q 0,0.122786 0.122786,0.169083 0.106683,0.04026 0.27174,0.07045 0.167069,0.03019 0.281804,0.03019 0.344203,0 0.619969,-0.173108 0.466989,-0.289856 0.466989,-0.986314 0,-0.378423 -0.146941,-0.696459 -0.144927,-0.318036 -0.400564,-0.499195 -0.311997,-0.223431 -0.758858,-0.223431 -0.318036,0 -0.40459,0.06844 -0.05234,0.04026 -0.05234,0.165057 z m 3.059587,0.269727 v 1.505638 q 0,0.281804 0.03422,0.372384 0.04026,0.102657 0.09863,0.144928 0.06039,0.04227 0.187199,0.06039 0.100644,0.01409 0.100644,0.05032 0,0.04831 -0.0624,0.04831 -0.03019,0 -0.07649,-0.006 -0.0624,-0.0081 -0.213366,-0.0081 l -0.291869,-0.004 -0.23752,0.01409 q -0.05837,0.006 -0.09662,0.006 -0.05435,0 -0.05435,-0.04227 0,-0.03623 0.0624,-0.0463 0.152979,-0.02617 0.197263,-0.10467 0.04428,-0.08052 0.04428,-0.336152 v -1.72303 q 0,-0.249598 -0.05837,-0.336152 -0.05636,-0.08655 -0.24356,-0.116748 -0.0624,-0.01208 -0.06441,-0.04831 -0.002,-0.04428 0.05837,-0.04428 0.0161,0 0.03623,0.002 0.14694,0.0161 0.390499,0.0161 0.148954,0 0.255637,-0.006 l 0.134863,-0.01007 q 0.03824,-0.002 0.05032,-0.002 0.05435,0 0.05435,0.03824 0,0.03623 -0.05233,0.05435 l -0.10467,0.04026 q -0.148953,0.05636 -0.148953,0.48108 z m 2.149761,-0.642111 q 0.630033,0 1.03261,0.3905 0.40459,0.388487 0.40459,0.996378 0,0.644124 -0.406603,1.056765 -0.406603,0.412642 -1.040662,0.412642 -0.650162,0 -1.052739,-0.394526 -0.400564,-0.394525 -0.400564,-1.034623 0,-0.277778 0.10467,-0.549518 0.106683,-0.273752 0.28583,-0.456925 0.189211,-0.193237 0.479066,-0.305958 0.289856,-0.114735 0.593802,-0.114735 z m -0.130838,0.130838 q -0.466989,0 -0.742755,0.316023 -0.273752,0.31401 -0.273752,0.847425 0,0.609904 0.350242,1.028584 0.352255,0.41868 0.863528,0.41868 0.466989,0 0.770935,-0.340177 0.303946,-0.342191 0.303946,-0.865541 0,-0.601853 -0.364332,-1.002417 -0.364333,-0.402577 -0.907812,-0.402577 z m 3.528589,2.493965 q -0.59984,-0.460951 -0.59984,-1.177538 0,-0.57166 0.3281,-0.972224 0.3905,-0.475041 1.099036,-0.475041 0.62802,0 1.022546,0.396539 0.396538,0.396538 0.396538,1.028584 0,0.406603 -0.183172,0.742755 -0.183173,0.336152 -0.501209,0.517312 -0.203301,0.112721 -0.477054,0.167069 0.203302,0.102657 0.283817,0.150967 l 0.187199,0.122786 0.152979,0.09863 q 0.177134,0.112722 0.287842,0.112722 0.169083,0 0.293882,-0.06844 0.03623,-0.02013 0.05636,-0.02214 0.03422,-0.002 0.03623,0.03019 0.004,0.07448 -0.191224,0.154992 -0.193237,0.08253 -0.372383,0.08253 -0.241547,0 -0.569647,-0.191225 -0.293881,-0.171095 -0.346216,-0.199275 L 27.230603,51.568678 Q 26.92867,51.40966 26.787768,51.40966 q -0.122786,0 -0.225443,0.09863 -0.102657,0.09863 -0.124799,0.239534 -0.01208,0.07246 -0.04831,0.07246 -0.05233,0 -0.04831,-0.06441 0.0081,-0.154992 0.102657,-0.305958 0.09662,-0.150967 0.221418,-0.201289 z m 0.708536,-2.508055 q -0.438809,0 -0.712562,0.320048 -0.273752,0.318036 -0.273752,0.829309 0,0.740742 0.464976,1.165461 0.348229,0.316023 0.778987,0.316023 0.442835,0 0.714574,-0.311997 0.273753,-0.311997 0.273753,-0.817232 0,-0.626007 -0.364332,-1.062803 -0.36232,-0.438809 -0.881644,-0.438809 z m 4.327705,1.52778 v -1.042675 q 0,-0.251611 -0.07246,-0.364332 -0.07246,-0.114735 -0.245572,-0.130838 -0.05837,-0.006 -0.05837,-0.04428 0,-0.04428 0.04026,-0.04227 0.04428,0.002 0.128824,0.0161 0.07649,0.01208 0.183173,0.01208 0.225443,0 0.277778,-0.006 0.07045,-0.006 0.08857,-0.006 0.03824,0 0.03824,0.03623 0,0.03019 -0.04227,0.04831 -0.122786,0.05032 -0.159018,0.140902 -0.03623,0.09058 -0.03623,0.342191 v 0.996378 q 0,0.549518 -0.219404,0.845412 -0.138889,0.187199 -0.398551,0.29992 -0.25765,0.110709 -0.551531,0.110709 -0.342191,0 -0.615943,-0.132851 -0.273753,-0.13285 -0.400564,-0.360306 -0.142915,-0.261675 -0.142915,-0.682368 v -1.022546 l -0.004,-0.114735 q 0,-0.215378 -0.06039,-0.295894 -0.05837,-0.08253 -0.23752,-0.108696 -0.05435,-0.0081 -0.05435,-0.04227 0,-0.04831 0.07649,-0.04831 0.05032,0 0.138889,0.004 0.09259,0.006 0.134863,0.006 l 0.154992,-0.002 h 0.15298 q 0.02415,0 0.112721,-0.0081 0.07448,-0.006 0.102657,-0.006 0.0463,0 0.0463,0.03221 0,0.03824 -0.06441,0.05032 -0.116747,0.02617 -0.157005,0.102657 -0.03824,0.07448 -0.03824,0.269727 l 0.004,0.13285 v 1.014495 q 0,0.519324 0.161031,0.740742 0.227456,0.31401 0.762884,0.31401 0.479067,0 0.716587,-0.261675 0.237521,-0.263688 0.237521,-0.793077 z m 1.986716,0.10467 h -0.728664 q -0.148954,0 -0.185186,0.02415 -0.03623,0.02415 -0.09662,0.161031 l -0.130838,0.295894 q -0.08857,0.203302 -0.08857,0.301933 0,0.09461 0.0463,0.136877 0.04831,0.04227 0.187198,0.07246 0.06039,0.01208 0.0624,0.04831 0.002,0.03422 -0.05636,0.03422 -0.02214,0 -0.06844,-0.002 l -0.193238,-0.01006 q -0.09662,-0.004 -0.22343,-0.004 -0.05837,0 -0.09058,0.002 -0.102657,0.0081 -0.112721,0.0081 -0.05435,0 -0.05435,-0.03623 0,-0.03221 0.03422,-0.04227 l 0.07448,-0.02214 q 0.04026,-0.01208 0.108695,-0.09662 0.06844,-0.08655 0.112722,-0.179147 l 0.05837,-0.13285 1.034623,-2.296703 q 0.02617,-0.06039 0.05837,-0.06039 0.03221,0 0.05435,0.05837 l 0.86554,2.214174 0.04428,0.108696 q 0.09461,0.243559 0.157005,0.303945 0.0624,0.05837 0.253624,0.09259 0.0624,0.01208 0.06039,0.05032 -0.002,0.03422 -0.05636,0.03422 -0.01812,0 -0.07649,-0.004 -0.10467,-0.01007 -0.372384,-0.01007 -0.279791,0 -0.350242,0.01208 -0.04227,0.0081 -0.0624,0.0081 -0.05233,0 -0.05233,-0.04227 0,-0.03221 0.05032,-0.04227 l 0.0624,-0.01409 q 0.100644,-0.02013 0.100644,-0.136877 0,-0.106683 -0.122786,-0.424719 l -0.100644,-0.2657 q -0.04227,-0.110709 -0.06643,-0.126812 -0.02416,-0.01812 -0.136877,-0.01812 z m 0.02416,-0.322062 -0.316023,-0.797103 -0.0161,-0.04227 q -0.02416,-0.06441 -0.05233,-0.06643 -0.01409,-0.002 -0.03221,0.03824 l -0.392513,0.87158 q -0.02617,0.05636 -0.02617,0.07448 0,0.05233 0.09259,0.05233 l 0.05435,0.002 h 0.607892 q 0.100644,0 0.100644,-0.05032 0,-0.01409 -0.01006,-0.0463 z M 35.6183,49.26594 v 1.505638 q 0,0.281804 0.03422,0.372384 0.04026,0.102657 0.09863,0.144928 0.06039,0.04227 0.187198,0.06039 0.100645,0.01409 0.100645,0.05032 0,0.04831 -0.0624,0.04831 -0.03019,0 -0.07649,-0.006 -0.0624,-0.0081 -0.213366,-0.0081 l -0.291869,-0.004 -0.23752,0.01409 q -0.05837,0.006 -0.09662,0.006 -0.05435,0 -0.05435,-0.04227 0,-0.03623 0.0624,-0.0463 0.152979,-0.02617 0.197263,-0.10467 0.04428,-0.08052 0.04428,-0.336152 v -1.72303 q 0,-0.249598 -0.05837,-0.336152 -0.05636,-0.08655 -0.243559,-0.116748 -0.0624,-0.01208 -0.06441,-0.04831 -0.002,-0.04428 0.05837,-0.04428 0.0161,0 0.03623,0.002 0.146941,0.0161 0.3905,0.0161 0.148954,0 0.255637,-0.006 l 0.134863,-0.01007 q 0.03824,-0.002 0.05032,-0.002 0.05435,0 0.05435,0.03824 0,0.03623 -0.05233,0.05435 l -0.10467,0.04026 Q 35.6183,48.841221 35.6183,49.26594 Z m 3.13205,0.183172 v 1.686798 q 0,0.227457 -0.01006,0.277779 -0.01006,0.04831 -0.05636,0.0463 -0.03019,-0.002 -0.0463,-0.01812 l -0.04428,-0.05233 -1.696863,-1.940422 -0.02013,-0.02214 q -0.01208,-0.01208 -0.02818,-0.01208 -0.03825,0 -0.03825,0.09058 v 1.364737 l -0.002,0.08454 0.006,0.142915 q 0.01409,0.13285 0.06844,0.183172 0.05435,0.05032 0.213366,0.07448 0.06643,0.0081 0.06643,0.05233 0,0.04026 -0.04227,0.04026 -0.02818,0 -0.06039,-0.004 -0.02214,-0.004 -0.175121,-0.01208 l -0.205315,-0.01006 -0.09662,0.004 q -0.0785,0 -0.148954,0.01006 -0.05233,0.0081 -0.07448,0.0081 -0.05233,0 -0.05636,-0.03825 -0.002,-0.03019 0.05636,-0.05032 0.169082,-0.05837 0.227456,-0.154992 0.06039,-0.09863 0.06039,-0.316023 v -1.368762 q 0,-0.34823 -0.110709,-0.547505 -0.110708,-0.201289 -0.320048,-0.229469 -0.05435,-0.0081 -0.05435,-0.0463 0,-0.03825 0.04428,-0.03825 0.01006,0 0.03221,0.002 l 0.08253,0.002 0.134863,0.004 0.03221,-0.002 q 0.04831,-0.002 0.07448,-0.002 0.05032,0 0.100644,0.05837 l 1.851855,2.097427 q 0.04428,0.05032 0.05636,0.04831 0.02013,-0.002 0.02214,-0.03825 v -0.996378 l 0.002,-0.27174 -0.02415,-0.462963 q -0.02013,-0.171096 -0.100644,-0.241547 -0.0785,-0.07246 -0.28583,-0.106683 -0.05837,-0.01006 -0.05837,-0.05032 0,-0.03824 0.05837,-0.03824 0.02617,0 0.08454,0.006 0.138889,0.0161 0.372384,0.0161 0.124799,0 0.199276,-0.01208 0.06441,-0.01208 0.09863,-0.01208 0.05233,0 0.05636,0.04227 0.002,0.02617 -0.04026,0.03825 -0.122786,0.03019 -0.163044,0.100644 -0.03824,0.07045 -0.03824,0.263688 v 0.217392 z m 2.548313,-0.559582 h -0.565621 q -0.08857,0 -0.112722,0.02416 -0.02214,0.02415 -0.02214,0.11876 v 1.972628 l 0.002,0.0785 q 0.01006,0.235508 0.263688,0.279792 0.07045,0.01208 0.07045,0.0463 0,0.04428 -0.05636,0.04428 -0.02416,0 -0.09863,-0.01208 -0.03824,-0.006 -0.181159,-0.006 l -0.146941,-0.002 -0.157005,0.002 q -0.08454,0 -0.142915,0.006 -0.114734,0.01208 -0.134863,0.01208 -0.06039,0 -0.06039,-0.04428 0,-0.03221 0.06642,-0.04026 0.154993,-0.02013 0.209341,-0.08454 0.05435,-0.06643 0.05435,-0.235508 v -1.994769 l -0.002,-0.05233 q 0,-0.07246 -0.02214,-0.09259 -0.02013,-0.02013 -0.09662,-0.02013 h -0.533414 q -0.163044,0 -0.237521,0.06643 -0.07246,0.06441 -0.112722,0.245572 -0.01812,0.0785 -0.05435,0.07649 -0.03623,-0.002 -0.03623,-0.05435 0,-0.04227 0.02415,-0.154992 0.03019,-0.144928 0.03019,-0.239533 0,-0.09259 0.02013,-0.120774 0.02214,-0.03019 0.09058,-0.03019 h 2.165865 q 0.110709,0 0.132851,0.02416 0.02415,0.02415 0.02415,0.142915 0,0.11876 0.01006,0.173108 0.01006,0.06844 0.01208,0.09863 0.002,0.06039 -0.04227,0.06441 -0.03623,0.002 -0.04831,-0.0624 -0.02617,-0.142915 -0.08454,-0.185185 -0.05837,-0.04428 -0.227456,-0.04428 z"
         id="text10134"
         style="font-size:4.12239px;line-height:1.25;font-family:'Goudy Old Style';-inkscape-font-specification:'Goudy Old Style, Normal';fill:#ffffff;stroke-width:0.0499911"
         aria-label="STUDIO QUAINT" />
      <g
         id="g12641"
         transform="translate(3.2015291,-163.26915)">
        <path
           style="font-weight:300;font-size:1.67332px;line-height:1.25;font-family:Ubuntu;-inkscape-font-specification:'Ubuntu Light';letter-spacing:0.41833px;word-spacing:0px;fill:#ffffff;stroke-width:0.041833"
           d="m 2.5984928,217.84921 q 0.063586,0 0.1104391,-0.003 0.048526,-0.005 0.081993,-0.0117 v -0.30454 q -0.018406,-0.008 -0.058566,-0.0167 -0.04016,-0.01 -0.1104391,-0.01 -0.04016,0 -0.083666,0.007 -0.043506,0.005 -0.080319,0.0251 -0.036813,0.0184 -0.06024,0.0519 -0.023426,0.0335 -0.023426,0.0887 0,0.0485 0.01506,0.082 0.016733,0.0335 0.04518,0.0535 0.03012,0.0201 0.070279,0.0301 0.041833,0.008 0.093706,0.008 z m -0.01004,-0.80654 q 0.085339,0 0.1439055,0.0251 0.06024,0.0234 0.097053,0.0669 0.036813,0.0418 0.053546,0.1004 0.016733,0.0586 0.016733,0.12717 v 0.54551 q -0.016733,0.005 -0.048526,0.0117 -0.031793,0.005 -0.073626,0.0117 -0.041833,0.007 -0.093706,0.01 -0.0502,0.005 -0.1037458,0.005 -0.068606,0 -0.1271723,-0.0151 -0.056893,-0.0151 -0.1003992,-0.0468 -0.041833,-0.0335 -0.066933,-0.0837 -0.023426,-0.0519 -0.023426,-0.12549 0,-0.0703 0.026773,-0.12048 0.026773,-0.0502 0.075299,-0.082 0.048526,-0.0335 0.1154591,-0.0485 0.066933,-0.0151 0.1455788,-0.0151 0.023426,0 0.048526,0.003 0.026773,0.002 0.0502,0.007 0.0251,0.003 0.041833,0.008 0.018407,0.003 0.0251,0.007 v -0.0536 q 0,-0.0452 -0.00669,-0.087 -0.00669,-0.0435 -0.03012,-0.077 -0.021753,-0.0351 -0.063586,-0.0552 -0.04016,-0.0218 -0.1070925,-0.0218 -0.095379,0 -0.1422322,0.0134 -0.046853,0.0134 -0.068606,0.0217 l -0.01506,-0.0954 q 0.028446,-0.0134 0.087013,-0.0251 0.06024,-0.0117 0.1439055,-0.0117 z m 1.3018443,0.003 q 0.053546,0 0.1003992,0.008 0.048526,0.008 0.066933,0.0167 l -0.021753,0.0937 q -0.013387,-0.007 -0.05522,-0.0134 -0.04016,-0.008 -0.1070925,-0.008 -0.070279,0 -0.1137857,0.01 -0.041833,0.01 -0.05522,0.0167 v 0.75802 H 3.5957929 v -0.82495 q 0.041833,-0.0184 0.1154591,-0.0368 0.073626,-0.0201 0.1790452,-0.0201 z m 1.1077387,0.90024 q -0.1003992,0 -0.1773719,-0.0318 -0.076973,-0.0318 -0.1288457,-0.0904 -0.0502,-0.0602 -0.076973,-0.14223 -0.026773,-0.0837 -0.026773,-0.18407 0,-0.10207 0.026773,-0.18574 0.028446,-0.0837 0.080319,-0.1439 0.051873,-0.0602 0.125499,-0.092 0.073626,-0.0335 0.1656586,-0.0335 0.070279,0 0.130519,0.0117 0.061913,0.0117 0.095379,0.0301 l -0.028447,0.0937 q -0.033466,-0.0167 -0.075299,-0.0268 -0.041833,-0.01 -0.1121124,-0.01 -0.1439056,0 -0.219205,0.0937 -0.073626,0.092 -0.073626,0.26271 0,0.077 0.016733,0.14224 0.016733,0.0636 0.053546,0.11043 0.038486,0.0452 0.097053,0.072 0.060239,0.0251 0.1455788,0.0251 0.070279,0 0.1171324,-0.0151 0.048526,-0.0167 0.070279,-0.0284 l 0.023426,0.0937 q -0.03012,0.0167 -0.095379,0.0318 -0.063586,0.0167 -0.1338656,0.0167 z m 0.8299652,-0.0184 v -1.27842 l 0.1087658,-0.0201 v 0.45849 q 0.053546,-0.0201 0.1087659,-0.0301 0.055219,-0.0117 0.1104391,-0.0117 0.1003992,0 0.167332,0.0284 0.066933,0.0285 0.1070925,0.082 0.04016,0.0519 0.055219,0.12549 0.016733,0.0736 0.016733,0.16232 v 0.48359 h -0.108765 v -0.44845 q 0,-0.092 -0.013387,-0.15562 -0.011713,-0.0636 -0.041833,-0.10375 -0.028446,-0.0402 -0.076973,-0.0569 -0.048526,-0.0184 -0.1221523,-0.0184 -0.028447,0 -0.061913,0.005 -0.031793,0.005 -0.060239,0.0117 -0.028446,0.005 -0.051873,0.0117 -0.021753,0.007 -0.028446,0.01 v 0.74463 z m 1.4792156,0 H 7.1984509 v -0.86511 h 0.1087658 z m 0.0251,-1.12615 q 0,0.0385 -0.023426,0.0619 -0.023427,0.0218 -0.056893,0.0218 -0.033466,0 -0.056893,-0.0218 -0.023426,-0.0234 -0.023426,-0.0619 0,-0.0385 0.023426,-0.0602 0.023427,-0.0234 0.056893,-0.0234 0.033466,0 0.056893,0.0234 0.023426,0.0218 0.023426,0.0602 z m 0.7831131,0.26104 h 0.3447039 v 0.092 h -0.344704 v 0.46017 q 0,0.0736 0.011713,0.12047 0.013387,0.0452 0.036813,0.0703 0.023426,0.0251 0.056893,0.0335 0.033466,0.008 0.073626,0.008 0.068606,0 0.1104391,-0.0151 0.041833,-0.0167 0.065259,-0.0301 l 0.026773,0.0904 q -0.023426,0.0151 -0.081993,0.0351 -0.058566,0.0184 -0.1271724,0.0184 -0.080319,0 -0.1355389,-0.0201 -0.053546,-0.0217 -0.087013,-0.0636 -0.031793,-0.0435 -0.04518,-0.1071 -0.013386,-0.0636 -0.013386,-0.15059 v -0.7965 l 0.1087658,-0.0201 z m 0.9119577,0.43172 q 0,-0.11379 0.031793,-0.19746 0.033466,-0.0853 0.085339,-0.14223 0.053546,-0.0569 0.1204791,-0.0837 0.068606,-0.0285 0.1405588,-0.0285 0.1589655,0 0.2526714,0.10375 0.095379,0.10374 0.095379,0.3196 0,0.0134 -0.00167,0.0268 0,0.0134 -0.00167,0.0251 H 9.1428464 q 0.00502,0.15897 0.078646,0.24431 0.073626,0.0853 0.2342648,0.0853 0.088686,0 0.1405589,-0.0167 0.051873,-0.0167 0.075299,-0.0284 l 0.02008,0.0937 q -0.023427,0.0134 -0.088686,0.0318 -0.063586,0.0184 -0.1505988,0.0184 -0.1137858,0 -0.1941051,-0.0335 -0.080319,-0.0335 -0.1321923,-0.0937 -0.051873,-0.0602 -0.075299,-0.14223 -0.023427,-0.0837 -0.023427,-0.18239 z m 0.6141085,-0.0686 q -0.00335,-0.13554 -0.063586,-0.21084 -0.060239,-0.0753 -0.1706786,-0.0753 -0.058566,0 -0.1054192,0.0234 -0.04518,0.0234 -0.080319,0.0636 -0.033466,0.0385 -0.053546,0.0904 -0.018406,0.0519 -0.021753,0.10877 z m 1.1311651,0.5204 q -0.100399,0 -0.177372,-0.0318 -0.07697,-0.0318 -0.128845,-0.0904 -0.0502,-0.0602 -0.07697,-0.14223 -0.02677,-0.0837 -0.02677,-0.18407 0,-0.10207 0.02677,-0.18574 0.02845,-0.0837 0.08032,-0.1439 0.05187,-0.0602 0.125499,-0.092 0.07363,-0.0335 0.165659,-0.0335 0.07028,0 0.130519,0.0117 0.06191,0.0117 0.09538,0.0301 l -0.02845,0.0937 q -0.03347,-0.0167 -0.0753,-0.0268 -0.04183,-0.01 -0.112112,-0.01 -0.143906,0 -0.219205,0.0937 -0.07363,0.092 -0.07363,0.26271 0,0.077 0.01673,0.14224 0.01673,0.0636 0.05355,0.11043 0.03849,0.0452 0.09705,0.072 0.06024,0.0251 0.145579,0.0251 0.07028,0 0.117132,-0.0151 0.04853,-0.0167 0.07028,-0.0284 l 0.02343,0.0937 q -0.03012,0.0167 -0.09538,0.0318 -0.06359,0.0167 -0.133866,0.0167 z m 0.932037,-0.88351 h 0.344704 v 0.092 h -0.344704 v 0.46017 q 0,0.0736 0.01171,0.12047 0.01339,0.0452 0.03681,0.0703 0.02343,0.0251 0.05689,0.0335 0.03347,0.008 0.07363,0.008 0.06861,0 0.110439,-0.0151 0.04183,-0.0167 0.06526,-0.0301 l 0.02677,0.0904 q -0.02343,0.0151 -0.08199,0.0351 -0.05857,0.0184 -0.127173,0.0184 -0.08032,0 -0.135539,-0.0201 -0.05355,-0.0217 -0.08701,-0.0636 -0.03179,-0.0435 -0.04518,-0.1071 -0.01339,-0.0636 -0.01339,-0.15059 v -0.7965 l 0.108766,-0.0201 z m 1.628139,0.83499 q -0.04853,0.0134 -0.130519,0.0301 -0.08199,0.0167 -0.200798,0.0167 -0.09705,0 -0.162312,-0.0284 -0.06526,-0.0284 -0.105419,-0.0803 -0.04016,-0.0519 -0.05857,-0.1255 -0.01673,-0.0736 -0.01673,-0.16231 v -0.48526 h 0.108766 v 0.45012 q 0,0.092 0.01339,0.15562 0.01339,0.0636 0.04351,0.10375 0.03012,0.0385 0.07697,0.0569 0.04853,0.0167 0.117132,0.0167 0.07697,0 0.133866,-0.008 0.05689,-0.008 0.07195,-0.0151 v -0.75969 h 0.108765 z m 1.000646,-0.85172 q 0.05355,0 0.100399,0.008 0.04853,0.008 0.06693,0.0167 l -0.02175,0.0937 q -0.01339,-0.007 -0.05522,-0.0134 -0.04016,-0.008 -0.107092,-0.008 -0.07028,0 -0.113786,0.01 -0.04183,0.01 -0.05522,0.0167 v 0.75802 h -0.108766 v -0.82495 q 0.04183,-0.0184 0.11546,-0.0368 0.07363,-0.0201 0.179045,-0.0201 z m 0.697776,0.44845 q 0,-0.11379 0.03179,-0.19746 0.03347,-0.0853 0.08534,-0.14223 0.05355,-0.0569 0.120479,-0.0837 0.06861,-0.0285 0.140559,-0.0285 0.158965,0 0.252671,0.10375 0.09538,0.10374 0.09538,0.3196 0,0.0134 -0.0017,0.0268 0,0.0134 -0.0017,0.0251 h -0.607415 q 0.005,0.15897 0.07865,0.24431 0.07363,0.0853 0.234265,0.0853 0.08869,0 0.140559,-0.0167 0.05187,-0.0167 0.0753,-0.0284 l 0.02008,0.0937 q -0.02343,0.0134 -0.08869,0.0318 -0.06359,0.0184 -0.150599,0.0184 -0.113786,0 -0.194105,-0.0335 -0.08032,-0.0335 -0.132192,-0.0937 -0.05187,-0.0602 -0.0753,-0.14223 -0.02343,-0.0837 -0.02343,-0.18239 z m 0.614108,-0.0686 q -0.0033,-0.13554 -0.06359,-0.21084 -0.06024,-0.0753 -0.170679,-0.0753 -0.05857,0 -0.105419,0.0234 -0.04518,0.0234 -0.08032,0.0636 -0.03347,0.0385 -0.05355,0.0904 -0.01841,0.0519 -0.02175,0.10877 z m 3.281385,0.502 h -0.108766 v -0.86511 h 0.108766 z m 0.0251,-1.12615 q 0,0.0385 -0.02343,0.0619 -0.02343,0.0218 -0.05689,0.0218 -0.03347,0 -0.05689,-0.0218 -0.02343,-0.0234 -0.02343,-0.0619 0,-0.0385 0.02343,-0.0602 0.02343,-0.0234 0.05689,-0.0234 0.03347,0 0.05689,0.0234 0.02343,0.0218 0.02343,0.0602 z m 0.68104,0.29116 q 0.04853,-0.0134 0.130519,-0.0301 0.08199,-0.0167 0.200798,-0.0167 0.09873,0 0.163985,0.0284 0.06693,0.0285 0.105419,0.082 0.04016,0.0519 0.05689,0.12549 0.01673,0.0736 0.01673,0.16232 v 0.48359 h -0.108766 v -0.44845 q 0,-0.092 -0.01339,-0.15562 -0.01171,-0.0636 -0.04183,-0.10375 -0.02845,-0.0402 -0.07697,-0.0569 -0.04685,-0.0184 -0.118805,-0.0184 -0.07697,0 -0.133866,0.008 -0.05522,0.008 -0.07195,0.0151 v 0.75969 h -0.108765 z m 1.472521,-0.0301 h 0.344704 v 0.092 h -0.344704 v 0.46017 q 0,0.0736 0.01171,0.12047 0.01339,0.0452 0.03681,0.0703 0.02343,0.0251 0.05689,0.0335 0.03347,0.008 0.07363,0.008 0.06861,0 0.110439,-0.0151 0.04183,-0.0167 0.06526,-0.0301 l 0.02677,0.0904 q -0.02343,0.0151 -0.08199,0.0351 -0.05857,0.0184 -0.127172,0.0184 -0.08032,0 -0.135539,-0.0201 -0.05355,-0.0217 -0.08701,-0.0636 -0.03179,-0.0435 -0.04518,-0.1071 -0.01339,-0.0636 -0.01339,-0.15059 v -0.7965 l 0.108766,-0.0201 z m 0.911959,0.43172 q 0,-0.11379 0.03179,-0.19746 0.03347,-0.0853 0.08534,-0.14223 0.05355,-0.0569 0.120479,-0.0837 0.06861,-0.0285 0.140559,-0.0285 0.158965,0 0.252671,0.10375 0.09538,0.10374 0.09538,0.3196 0,0.0134 -0.0017,0.0268 0,0.0134 -0.0017,0.0251 h -0.607416 q 0.005,0.15897 0.07865,0.24431 0.07363,0.0853 0.234265,0.0853 0.08869,0 0.140559,-0.0167 0.05187,-0.0167 0.0753,-0.0284 l 0.02008,0.0937 q -0.02343,0.0134 -0.08869,0.0318 -0.06359,0.0184 -0.150598,0.0184 -0.113786,0 -0.194106,-0.0335 -0.08032,-0.0335 -0.132192,-0.0937 -0.05187,-0.0602 -0.0753,-0.14223 -0.02343,-0.0837 -0.02343,-0.18239 z m 0.614109,-0.0686 q -0.0033,-0.13554 -0.06359,-0.21084 -0.06024,-0.0753 -0.170679,-0.0753 -0.05857,0 -0.105419,0.0234 -0.04518,0.0234 -0.08032,0.0636 -0.03347,0.0385 -0.05355,0.0904 -0.01841,0.0519 -0.02175,0.10877 z m 1.067579,-0.37984 q 0.05355,0 0.100399,0.008 0.04853,0.008 0.06693,0.0167 l -0.02175,0.0937 q -0.01339,-0.007 -0.05522,-0.0134 -0.04016,-0.008 -0.107093,-0.008 -0.07028,0 -0.113785,0.01 -0.04183,0.01 -0.05522,0.0167 v 0.75802 h -0.108766 v -0.82495 q 0.04183,-0.0184 0.115459,-0.0368 0.07363,-0.0201 0.179046,-0.0201 z m 0.858412,0.88184 h -0.108765 v -0.86511 h 0.108765 z m 0.0251,-1.12615 q 0,0.0385 -0.02343,0.0619 -0.02343,0.0218 -0.05689,0.0218 -0.03347,0 -0.05689,-0.0218 -0.02343,-0.0234 -0.02343,-0.0619 0,-0.0385 0.02343,-0.0602 0.02343,-0.0234 0.05689,-0.0234 0.03347,0 0.05689,0.0234 0.02343,0.0218 0.02343,0.0602 z m 1.418976,0.69443 q 0,0.10207 -0.03012,0.18574 -0.02845,0.0837 -0.08199,0.14223 -0.05187,0.0586 -0.123825,0.092 -0.07195,0.0318 -0.158966,0.0318 -0.08701,0 -0.158965,-0.0318 -0.07195,-0.0335 -0.125499,-0.092 -0.05187,-0.0586 -0.08199,-0.14223 -0.02845,-0.0837 -0.02845,-0.18574 0,-0.10207 0.02845,-0.18574 0.03012,-0.0837 0.08199,-0.14223 0.05355,-0.0602 0.125499,-0.092 0.07195,-0.0335 0.158965,-0.0335 0.08701,0 0.158966,0.0335 0.07195,0.0318 0.123825,0.092 0.05355,0.0586 0.08199,0.14223 0.03012,0.0837 0.03012,0.18574 z m -0.115459,0 q 0,-0.16231 -0.0753,-0.25769 -0.0753,-0.097 -0.204145,-0.097 -0.128845,0 -0.204145,0.097 -0.0753,0.0954 -0.0753,0.25769 0,0.16231 0.0753,0.25769 0.0753,0.0954 0.204145,0.0954 0.128846,0 0.204145,-0.0954 0.0753,-0.0954 0.0753,-0.25769 z m 1.064231,-0.45012 q 0.05355,0 0.100399,0.008 0.04853,0.008 0.06693,0.0167 l -0.02175,0.0937 q -0.01339,-0.007 -0.05522,-0.0134 -0.04016,-0.008 -0.107093,-0.008 -0.07028,0 -0.113786,0.01 -0.04183,0.01 -0.05522,0.0167 v 0.75802 h -0.108766 v -0.82495 q 0.04183,-0.0184 0.115459,-0.0368 0.07363,-0.0201 0.179045,-0.0201 z m 3.368398,0.8969 q -0.05522,-0.002 -0.09705,-0.0151 -0.04016,-0.0117 -0.06861,-0.0368 -0.02677,-0.0268 -0.04183,-0.0669 -0.01339,-0.0418 -0.01339,-0.10375 v -1.07092 l 0.108765,-0.0201 v 1.08766 q 0,0.0402 0.0067,0.0653 0.0084,0.0234 0.02343,0.0385 0.01506,0.0134 0.03849,0.0201 0.0251,0.007 0.05857,0.0117 z m 0.898572,-0.0937 q 0.06359,0 0.110439,-0.003 0.04853,-0.005 0.08199,-0.0117 v -0.30454 q -0.01841,-0.008 -0.05857,-0.0167 -0.04016,-0.01 -0.110439,-0.01 -0.04016,0 -0.08367,0.007 -0.04351,0.005 -0.08032,0.0251 -0.03681,0.0184 -0.06024,0.0519 -0.02343,0.0335 -0.02343,0.0887 0,0.0485 0.01506,0.082 0.01673,0.0335 0.04518,0.0535 0.03012,0.0201 0.07028,0.0301 0.04183,0.008 0.09371,0.008 z m -0.01004,-0.80654 q 0.08534,0 0.143906,0.0251 0.06024,0.0234 0.09705,0.0669 0.03681,0.0418 0.05355,0.1004 0.01673,0.0586 0.01673,0.12717 v 0.54551 q -0.01673,0.005 -0.04853,0.0117 -0.03179,0.005 -0.07363,0.0117 -0.04183,0.007 -0.09371,0.01 -0.0502,0.005 -0.103745,0.005 -0.06861,0 -0.127173,-0.0151 -0.05689,-0.0151 -0.100399,-0.0468 -0.04183,-0.0335 -0.06693,-0.0837 -0.02343,-0.0519 -0.02343,-0.12549 0,-0.0703 0.02677,-0.12048 0.02677,-0.0502 0.0753,-0.082 0.04853,-0.0335 0.115459,-0.0485 0.06693,-0.0151 0.145579,-0.0151 0.02343,0 0.04853,0.003 0.02677,0.002 0.0502,0.007 0.0251,0.003 0.04183,0.008 0.01841,0.003 0.0251,0.007 v -0.0536 q 0,-0.0452 -0.0067,-0.087 -0.0067,-0.0435 -0.03012,-0.077 -0.02175,-0.0351 -0.06359,-0.0552 -0.04016,-0.0218 -0.107093,-0.0218 -0.09538,0 -0.142232,0.0134 -0.04685,0.0134 -0.06861,0.0217 l -0.01506,-0.0954 q 0.02845,-0.0134 0.08701,-0.0251 0.06024,-0.0117 0.143905,-0.0117 z m 1.007341,0.0502 q 0.04853,-0.0134 0.130519,-0.0301 0.08199,-0.0167 0.200798,-0.0167 0.09873,0 0.163986,0.0284 0.06693,0.0285 0.105419,0.082 0.04016,0.0519 0.05689,0.12549 0.01673,0.0736 0.01673,0.16232 v 0.48359 h -0.108766 v -0.44845 q 0,-0.092 -0.01339,-0.15562 -0.01171,-0.0636 -0.04183,-0.10375 -0.02845,-0.0402 -0.07697,-0.0569 -0.04685,-0.0184 -0.118806,-0.0184 -0.07697,0 -0.133866,0.008 -0.05522,0.008 -0.07195,0.0151 v 0.75969 h -0.108766 z m 2.058184,0.80821 q -0.04853,0.0167 -0.123826,0.0318 -0.0753,0.0151 -0.190759,0.0151 -0.09538,0 -0.174025,-0.0301 -0.07697,-0.0318 -0.133866,-0.0904 -0.05522,-0.0586 -0.08701,-0.14223 -0.03012,-0.0837 -0.03012,-0.18909 0,-0.0987 0.0251,-0.18072 0.02677,-0.0837 0.07697,-0.1439 0.0502,-0.0602 0.122152,-0.0937 0.07363,-0.0335 0.167332,-0.0335 0.08534,0 0.147252,0.0251 0.06359,0.0234 0.09203,0.0452 v -0.46518 l 0.108766,-0.0201 z m -0.108766,-0.68104 q -0.01506,-0.0117 -0.03849,-0.0251 -0.02175,-0.0134 -0.05187,-0.0251 -0.03012,-0.0117 -0.06526,-0.0184 -0.03514,-0.008 -0.07363,-0.008 -0.08032,0 -0.135539,0.0284 -0.05355,0.0284 -0.08701,0.077 -0.03347,0.0469 -0.04853,0.11211 -0.01506,0.0636 -0.01506,0.13554 0,0.17068 0.08534,0.26271 0.08534,0.0904 0.225899,0.0904 0.08032,0 0.128845,-0.007 0.0502,-0.008 0.0753,-0.0167 z m 0.99228,0.63084 q 0.09371,0 0.153945,-0.0301 0.06191,-0.0318 0.06191,-0.10542 0,-0.0351 -0.01171,-0.0602 -0.01004,-0.0251 -0.03514,-0.0452 -0.0251,-0.0201 -0.06693,-0.0385 -0.04016,-0.0184 -0.100399,-0.0435 -0.04853,-0.0201 -0.09203,-0.0402 -0.04351,-0.0218 -0.07697,-0.0485 -0.03347,-0.0284 -0.05355,-0.0669 -0.02008,-0.0385 -0.02008,-0.0937 0,-0.10542 0.07865,-0.17068 0.08032,-0.0653 0.219205,-0.0653 0.08869,0 0.145579,0.0151 0.05857,0.0151 0.08199,0.0268 l -0.0251,0.0971 q -0.02008,-0.01 -0.06861,-0.0268 -0.04685,-0.0167 -0.138885,-0.0167 -0.03681,0 -0.07028,0.008 -0.03179,0.007 -0.05689,0.0234 -0.0251,0.0151 -0.04016,0.0402 -0.01506,0.0234 -0.01506,0.0586 0,0.0351 0.01339,0.0602 0.01339,0.0251 0.03849,0.0452 0.02677,0.0184 0.06359,0.0351 0.03849,0.0167 0.08701,0.0368 0.0502,0.0201 0.09538,0.0418 0.04685,0.0201 0.08199,0.0502 0.03514,0.0284 0.05689,0.0703 0.02175,0.0402 0.02175,0.10207 0,0.11714 -0.08869,0.17738 -0.08701,0.0602 -0.239285,0.0602 -0.113786,0 -0.174025,-0.0201 -0.06024,-0.0184 -0.08032,-0.0285 l 0.02845,-0.0987 q 0.005,0.003 0.02175,0.0117 0.01673,0.007 0.04518,0.0167 0.02845,0.008 0.06693,0.0151 0.04016,0.007 0.09203,0.007 z m 1.315229,0.0954 q -0.1004,0 -0.177372,-0.0318 -0.07697,-0.0318 -0.128846,-0.0904 -0.0502,-0.0602 -0.07697,-0.14223 -0.02677,-0.0837 -0.02677,-0.18407 0,-0.10207 0.02677,-0.18574 0.02845,-0.0837 0.08032,-0.1439 0.05187,-0.0602 0.125499,-0.092 0.07363,-0.0335 0.165658,-0.0335 0.07028,0 0.130519,0.0117 0.06191,0.0117 0.09538,0.0301 l -0.02845,0.0937 q -0.03347,-0.0167 -0.0753,-0.0268 -0.04183,-0.01 -0.112113,-0.01 -0.143905,0 -0.219205,0.0937 -0.07363,0.092 -0.07363,0.26271 0,0.077 0.01673,0.14224 0.01673,0.0636 0.05355,0.11043 0.03849,0.0452 0.09705,0.072 0.06024,0.0251 0.145579,0.0251 0.07028,0 0.117132,-0.0151 0.04853,-0.0167 0.07028,-0.0284 l 0.02343,0.0937 q -0.03012,0.0167 -0.09538,0.0318 -0.06359,0.0167 -0.133865,0.0167 z m 1.102713,-0.097 q 0.06359,0 0.110439,-0.003 0.04853,-0.005 0.08199,-0.0117 v -0.30454 q -0.01841,-0.008 -0.05857,-0.0167 -0.04016,-0.01 -0.110439,-0.01 -0.04016,0 -0.08367,0.007 -0.04351,0.005 -0.08032,0.0251 -0.03681,0.0184 -0.06024,0.0519 -0.02343,0.0335 -0.02343,0.0887 0,0.0485 0.01506,0.082 0.01673,0.0335 0.04518,0.0535 0.03012,0.0201 0.07028,0.0301 0.04183,0.008 0.09371,0.008 z m -0.01004,-0.80654 q 0.08534,0 0.143906,0.0251 0.06024,0.0234 0.09705,0.0669 0.03681,0.0418 0.05355,0.1004 0.01673,0.0586 0.01673,0.12717 v 0.54551 q -0.01673,0.005 -0.04853,0.0117 -0.03179,0.005 -0.07363,0.0117 -0.04183,0.007 -0.09371,0.01 -0.0502,0.005 -0.103746,0.005 -0.06861,0 -0.127172,-0.0151 -0.05689,-0.0151 -0.1004,-0.0468 -0.04183,-0.0335 -0.06693,-0.0837 -0.02343,-0.0519 -0.02343,-0.12549 0,-0.0703 0.02677,-0.12048 0.02677,-0.0502 0.0753,-0.082 0.04853,-0.0335 0.115459,-0.0485 0.06693,-0.0151 0.145578,-0.0151 0.02343,0 0.04853,0.003 0.02677,0.002 0.0502,0.007 0.0251,0.003 0.04183,0.008 0.01841,0.003 0.0251,0.007 v -0.0536 q 0,-0.0452 -0.0067,-0.087 -0.0067,-0.0435 -0.03012,-0.077 -0.02175,-0.0351 -0.06359,-0.0552 -0.04016,-0.0218 -0.107093,-0.0218 -0.09538,0 -0.142232,0.0134 -0.04685,0.0134 -0.06861,0.0217 l -0.01506,-0.0954 q 0.02845,-0.0134 0.08701,-0.0251 0.06024,-0.0117 0.143905,-0.0117 z m 1.116109,0.72957 q 0.01506,0.0117 0.03681,0.0251 0.02343,0.0134 0.05355,0.0251 0.03012,0.0117 0.06526,0.0201 0.03514,0.007 0.07363,0.007 0.08032,0 0.133865,-0.0268 0.05522,-0.0284 0.08869,-0.0753 0.03347,-0.0485 0.04853,-0.11211 0.01506,-0.0653 0.01506,-0.13722 0,-0.17068 -0.08534,-0.26103 -0.08534,-0.092 -0.225898,-0.092 -0.08032,0 -0.130519,0.008 -0.04853,0.007 -0.07363,0.0151 z m 0,0.46518 h -0.108766 v -1.14455 q 0.04853,-0.0167 0.123826,-0.0318 0.0753,-0.0151 0.190758,-0.0151 0.09538,0 0.172352,0.0318 0.07865,0.0301 0.133866,0.0887 0.05689,0.0586 0.08701,0.14223 0.03179,0.0837 0.03179,0.18908 0,0.0987 -0.02677,0.1824 -0.0251,0.082 -0.0753,0.14223 -0.0502,0.0586 -0.123826,0.092 -0.07195,0.0335 -0.165658,0.0335 -0.08534,0 -0.148926,-0.0234 -0.06191,-0.0251 -0.09036,-0.0469 z m 1.233236,-0.74295 q 0,-0.11379 0.03179,-0.19746 0.03347,-0.0853 0.08534,-0.14223 0.05355,-0.0569 0.120479,-0.0837 0.06861,-0.0285 0.140559,-0.0285 0.158965,0 0.252671,0.10375 0.09538,0.10374 0.09538,0.3196 0,0.0134 -0.0017,0.0268 0,0.0134 -0.0017,0.0251 h -0.607416 q 0.005,0.15897 0.07865,0.24431 0.07363,0.0853 0.234265,0.0853 0.08869,0 0.140559,-0.0167 0.05187,-0.0167 0.0753,-0.0284 l 0.02008,0.0937 q -0.02343,0.0134 -0.08869,0.0318 -0.06359,0.0184 -0.150598,0.0184 -0.113786,0 -0.194106,-0.0335 -0.08032,-0.0335 -0.132192,-0.0937 -0.05187,-0.0602 -0.0753,-0.14223 -0.02343,-0.0837 -0.02343,-0.18239 z m 0.614109,-0.0686 q -0.0033,-0.13554 -0.06359,-0.21084 -0.06024,-0.0753 -0.170679,-0.0753 -0.05857,0 -0.105419,0.0234 -0.04518,0.0234 -0.08032,0.0636 -0.03347,0.0385 -0.05355,0.0904 -0.01841,0.0519 -0.02175,0.10877 z"
           id="text858-9"
           aria-label="architecture   interior   landscape" />
        <path
           id="path870-3"
           style="opacity:1;fill:#b2846d;stroke-width:0.0178663;stroke-linejoin:round"
           d="m 17.547623,217.44362 a 0.40144792,0.40144792 0 0 1 -0.401448,0.40145 0.40144792,0.40144792 0 0 1 -0.401448,-0.40145 0.40144792,0.40144792 0 0 1 0.401448,-0.40145 0.40144792,0.40144792 0 0 1 0.401448,0.40145 z" />
        <path
           id="path870-5-6-1"
           style="opacity:1;fill:#b2846d;stroke-width:0.0178663;stroke-linejoin:round"
           d="m 28.96814,217.43304 a 0.40144792,0.40144792 0 0 1 -0.401448,0.40145 0.40144792,0.40144792 0 0 1 -0.401448,-0.40145 0.40144792,0.40144792 0 0 1 0.401448,-0.40144 0.40144792,0.40144792 0 0 1 0.401448,0.40144 z" />
        <path
           id="path870-5-8-7"
           style="opacity:1;fill:#b2846d;stroke-width:0.0178663;stroke-linejoin:round"
           d="m 42.587544,217.43304 a 0.40144792,0.40144792 0 0 1 -0.401448,0.40145 0.40144792,0.40144792 0 0 1 -0.401448,-0.40145 0.40144792,0.40144792 0 0 1 0.401448,-0.40144 0.40144792,0.40144792 0 0 1 0.401448,0.40144 z" />
      </g>
    </g>
  </g>
</svg>
