<?xml version="1.0" encoding="UTF-8" standalone="no"?>
<!-- Created with Inkscape (http://www.inkscape.org/) -->

<svg
   width="298.51352mm"
   height="65.612701mm"
   viewBox="0 0 298.51352 65.612701"
   version="1.1"
   id="svg1"
   xmlns="http://www.w3.org/2000/svg"
   xmlns:svg="http://www.w3.org/2000/svg">
  <defs
     id="defs1" />
  <g
     id="layer1"
     transform="translate(-1.3437959,-1.9210714)">
    <g
       id="g2505"
       style="fill:#ffffff;fill-opacity:1;stroke:none"
       transform="matrix(0.66900323,0,0,0.65406069,-43.566583,-55.911777)">
      <path
         id="path2495"
         style="fill:#b2846d;fill-opacity:1;stroke:none;stroke-width:0.5;stroke-linecap:round;stroke-dasharray:none;paint-order:stroke fill markers"
         d="m 112.57556,152.23825 c -9.13354,0 -16.486335,7.3528 -16.486335,16.48633 v 8.78293 a 47.409134,47.409134 0 0 0 18.450035,3.77031 47.409134,47.409134 0 0 0 43.67434,-29.03957 z m 11.21998,6.54637 a 7.5388746,7.5388746 0 0 1 7.53908,7.53908 7.5388746,7.5388746 0 0 1 -7.53908,7.53907 7.5388746,7.5388746 0 0 1 -7.53855,-7.53907 7.5388746,7.5388746 0 0 1 7.53855,-7.53908 z" />
      <rect
         style="fill:#ffffff;fill-opacity:1;stroke:none;stroke-width:0.352778;stroke-linecap:round;stroke-dasharray:none;paint-order:stroke fill markers"
         id="rect2497"
         width="94.818268"
         height="9.9340487"
         x="67.130287"
         y="123.97453"
         ry="4.9670243" />
      <rect
         style="fill:#ffffff;fill-opacity:1;stroke:none;stroke-width:0.352778;stroke-linecap:round;stroke-dasharray:none;paint-order:stroke fill markers"
         id="rect2499"
         width="81.612488"
         height="8.5504875"
         x="73.65155"
         y="106.32208"
         ry="4.2752438" />
      <rect
         style="fill:#ffffff;fill-opacity:1;stroke:none;stroke-width:0.352778;stroke-linecap:round;stroke-dasharray:none;paint-order:stroke fill markers"
         id="rect2501"
         width="56.268368"
         height="5.8952007"
         x="86.323608"
         y="94.186333"
         ry="2.9476004" />
      <rect
         style="fill:#ffffff;fill-opacity:1;stroke:none;stroke-width:0.352778;stroke-linecap:round;stroke-dasharray:none;paint-order:stroke fill markers"
         id="rect2503"
         width="28.037485"
         height="2.9374692"
         x="100.43905"
         y="88.421227"
         ry="1.4687346" />
    </g>
    <g
       id="layer2">
      <text
         xml:space="preserve"
         style="font-style:normal;font-variant:normal;font-weight:normal;font-stretch:normal;font-size:48.5746px;font-family:'Nimbus Roman';-inkscape-font-specification:'Nimbus Roman, Normal';font-variant-ligatures:normal;font-variant-caps:normal;font-variant-numeric:normal;font-variant-east-asian:normal;text-align:start;writing-mode:lr-tb;direction:ltr;text-anchor:start;fill:#ffffff;fill-opacity:1;stroke-width:1.13847"
         x="90.533241"
         y="56.430393"
         id="text1"
         transform="scale(0.84565746,1.1825119)"><tspan
           id="tspan1"
           style="font-style:normal;font-variant:normal;font-weight:normal;font-stretch:normal;font-size:48.5746px;font-family:'Nimbus Roman';-inkscape-font-specification:'Nimbus Roman, Normal';font-variant-ligatures:normal;font-variant-caps:normal;font-variant-numeric:normal;font-variant-east-asian:normal;fill:#ffffff;fill-opacity:1;stroke-width:1.13847"
           x="90.533241"
           y="56.430393">Join our team</tspan></text>
    </g>
  </g>
</svg>
