<?xml version="1.0" encoding="UTF-8" standalone="no"?>
<!-- Created with Inkscape (http://www.inkscape.org/) -->

<svg
   width="172mm"
   height="24mm"
   viewBox="0 0 172 24"
   version="1.1"
   id="svg1"
   sodipodi:docname="only name for light background.svg"
   inkscape:version="1.3.1 (9b9bdc1480, 2023-11-25, custom)"
   xmlns:inkscape="http://www.inkscape.org/namespaces/inkscape"
   xmlns:sodipodi="http://sodipodi.sourceforge.net/DTD/sodipodi-0.dtd"
   xmlns="http://www.w3.org/2000/svg"
   xmlns:svg="http://www.w3.org/2000/svg">
  <sodipodi:namedview
     id="namedview1"
     pagecolor="#ababab"
     bordercolor="#000000"
     borderopacity="0.25"
     inkscape:showpageshadow="2"
     inkscape:pageopacity="0.0"
     inkscape:pagecheckerboard="0"
     inkscape:deskcolor="#d1d1d1"
     inkscape:document-units="mm"
     inkscape:zoom="0.77292188"
     inkscape:cx="302.10039"
     inkscape:cy="94.446802"
     inkscape:window-width="1504"
     inkscape:window-height="1043"
     inkscape:window-x="26"
     inkscape:window-y="23"
     inkscape:window-maximized="0"
     inkscape:current-layer="g546" />
  <defs
     id="defs1">
    <linearGradient
       id="swatch1"
       inkscape:swatch="solid">
      <stop
         style="stop-color:#000000;stop-opacity:1;"
         offset="0"
         id="stop1" />
    </linearGradient>
  </defs>
  <g
     inkscape:label="Layer 1"
     inkscape:groupmode="layer"
     id="layer1">
    <g
       id="g546"
       transform="matrix(5.2076374,0,0,5.2076374,-28.452889,-66.991634)">
      <path
         d="m 6.5833818,13.350923 q 0.215379,0 0.364333,0.0624 l 0.138889,0.05837 q 0.01812,0.0081 0.03623,0.0081 0.02415,0 0.04831,-0.02013 l 0.02818,-0.02416 q 0.006,-0.0081 0.02214,-0.0081 0.05032,-0.002 0.05032,0.09863 0,0.03422 0.02617,0.203302 l 0.03221,0.207327 q 0.01006,0.06643 0.01006,0.08253 0,0.0624 -0.04227,0.0624 -0.03221,0 -0.06441,-0.09662 -0.07246,-0.217391 -0.295895,-0.358293 -0.221417,-0.140902 -0.49517,-0.140902 -0.217391,0 -0.3643318,0.128824 -0.1449278,0.126812 -0.1449278,0.318036 0,0.169083 0.094606,0.291869 0.082528,0.10467 0.1791466,0.152979 0.09863,0.04831 0.48108,0.175121 0.744767,0.243559 0.744767,0.799116 0,0.376409 -0.273752,0.615943 -0.273753,0.239533 -0.702497,0.239533 -0.154993,0 -0.342191,-0.04428 -0.1851849,-0.04428 -0.271739,-0.102657 -0.036232,-0.02415 -0.048309,-0.05032 -0.012077,-0.02818 -0.036232,-0.140902 -0.00403,-0.0161 -0.050322,-0.183172 -0.052335,-0.18116 -0.052335,-0.25765 0,-0.06039 0.040258,-0.05837 0.036232,0.002 0.064412,0.09863 0.072464,0.249598 0.3059586,0.41868 0.2334954,0.169082 0.5072474,0.169082 0.277778,0 0.469002,-0.163043 0.193237,-0.163044 0.193237,-0.396539 0,-0.22343 -0.177134,-0.376409 -0.09058,-0.0785 -0.52335,-0.223431 -0.4468607,-0.150966 -0.634059,-0.334139 -0.1851855,-0.183172 -0.1851855,-0.475041 0,-0.326087 0.2415463,-0.531401 0.2435592,-0.205315 0.6260072,-0.205315 z m 3.154192,0.265701 h -0.565621 q -0.08857,0 -0.112721,0.02416 -0.02214,0.02415 -0.02214,0.11876 v 1.972628 l 0.002,0.0785 q 0.01006,0.235508 0.263688,0.279792 0.07045,0.01208 0.07045,0.0463 0,0.04428 -0.05636,0.04428 -0.02415,0 -0.09863,-0.01208 -0.03824,-0.006 -0.18116,-0.006 l -0.146941,-0.002 -0.157005,0.002 q -0.08454,0 -0.142914,0.006 -0.114735,0.01208 -0.134864,0.01208 -0.06039,0 -0.06039,-0.04428 0,-0.03221 0.06643,-0.04026 0.154992,-0.02013 0.20934,-0.08454 0.05435,-0.06643 0.05435,-0.235508 v -1.994769 l -0.002,-0.05233 q 0,-0.07246 -0.02214,-0.09259 -0.02013,-0.02013 -0.09662,-0.02013 h -0.533415 q -0.163044,0 -0.23752,0.06643 -0.07246,0.06441 -0.112722,0.245572 -0.01812,0.0785 -0.05435,0.07649 -0.03623,-0.002 -0.03623,-0.05435 0,-0.04227 0.02416,-0.154992 0.03019,-0.144928 0.03019,-0.239533 0,-0.09259 0.02013,-0.120774 0.02214,-0.03019 0.09058,-0.03019 h 2.165865 q 0.1107082,0 0.1328502,0.02416 0.02416,0.02415 0.02416,0.142915 0,0.11876 0.01006,0.173108 0.01006,0.06844 0.01208,0.09863 0.002,0.06039 -0.04227,0.06441 -0.03623,0.002 -0.04831,-0.0624 -0.02617,-0.142915 -0.08454,-0.185185 -0.05837,-0.04428 -0.227456,-0.04428 z m 3.0233552,1.378827 v -1.042675 q 0,-0.251611 -0.07246,-0.364332 -0.07246,-0.114735 -0.245572,-0.130838 -0.05837,-0.006 -0.05837,-0.04428 0,-0.04428 0.04026,-0.04227 0.04428,0.002 0.128825,0.0161 0.07649,0.01208 0.183172,0.01208 0.225443,0 0.277778,-0.006 0.07045,-0.006 0.08857,-0.006 0.03824,0 0.03824,0.03623 0,0.03019 -0.04227,0.04831 -0.122786,0.05032 -0.159018,0.140902 -0.03623,0.09058 -0.03623,0.342191 v 0.996378 q 0,0.549518 -0.219405,0.845412 -0.138889,0.187199 -0.398551,0.29992 -0.257649,0.110709 -0.551531,0.110709 -0.34219,0 -0.615943,-0.132851 -0.273752,-0.13285 -0.400564,-0.360306 -0.142915,-0.261675 -0.142915,-0.682368 v -1.022546 l -0.004,-0.114735 q 0,-0.215378 -0.06039,-0.295894 -0.05837,-0.08253 -0.237521,-0.108696 -0.05435,-0.0081 -0.05435,-0.04227 0,-0.04831 0.07649,-0.04831 0.05032,0 0.138889,0.004 0.09259,0.006 0.134863,0.006 l 0.154993,-0.002 h 0.152979 q 0.02415,0 0.112722,-0.0081 0.07448,-0.006 0.102657,-0.006 0.0463,0 0.0463,0.03221 0,0.03824 -0.06441,0.05032 -0.116748,0.02617 -0.157005,0.102657 -0.03824,0.07448 -0.03824,0.269727 l 0.004,0.13285 v 1.014495 q 0,0.519324 0.16103,0.740742 0.227457,0.31401 0.762884,0.31401 0.479067,0 0.716587,-0.261675 0.237521,-0.263688 0.237521,-0.793077 z m 1.092997,-1.1091 q 0,-0.203302 -0.06844,-0.297907 -0.06844,-0.09461 -0.227456,-0.110709 -0.06643,-0.006 -0.06643,-0.04227 0,-0.04026 0.05233,-0.04026 l 0.159018,0.0081 q 0.02416,0.002 0.140902,0.002 0.203302,0 0.316023,-0.01006 l 0.187199,-0.01812 q 0.120773,-0.01006 0.265701,-0.01006 0.825283,0 1.237924,0.414655 0.37641,0.378422 0.37641,0.968198 0,0.380435 -0.165057,0.698471 -0.165056,0.318036 -0.458938,0.501209 -0.370371,0.231481 -0.80918,0.231481 -0.05234,0 -0.185185,-0.01006 -0.269727,-0.01812 -0.469003,-0.01812 -0.215378,0 -0.374396,0.02214 -0.07246,0.01006 -0.114735,0.01208 -0.07045,0.004 -0.07045,-0.0463 0,-0.03422 0.05636,-0.0463 0.136876,-0.02818 0.177134,-0.100644 0.04026,-0.07246 0.04026,-0.295894 z m 0.307971,-0.163044 v 2.075285 q 0,0.122786 0.122786,0.169083 0.106683,0.04026 0.27174,0.07045 0.167069,0.03019 0.281804,0.03019 0.344203,0 0.619969,-0.173108 0.466989,-0.289856 0.466989,-0.986314 0,-0.378423 -0.146941,-0.696459 -0.144927,-0.318036 -0.400564,-0.499195 -0.311997,-0.223431 -0.758858,-0.223431 -0.318036,0 -0.40459,0.06844 -0.05234,0.04026 -0.05234,0.165057 z m 3.059587,0.269727 v 1.505638 q 0,0.281804 0.03422,0.372384 0.04026,0.102657 0.09863,0.144928 0.06039,0.04227 0.187199,0.06039 0.100644,0.01409 0.100644,0.05032 0,0.04831 -0.0624,0.04831 -0.03019,0 -0.07649,-0.006 -0.0624,-0.0081 -0.213366,-0.0081 l -0.291869,-0.004 -0.23752,0.01409 q -0.05837,0.006 -0.09662,0.006 -0.05435,0 -0.05435,-0.04227 0,-0.03623 0.0624,-0.0463 0.152979,-0.02617 0.197263,-0.10467 0.04428,-0.08052 0.04428,-0.336152 v -1.72303 q 0,-0.249598 -0.05837,-0.336152 -0.05636,-0.08655 -0.24356,-0.116748 -0.0624,-0.01208 -0.06441,-0.04831 -0.002,-0.04428 0.05837,-0.04428 0.0161,0 0.03623,0.002 0.14694,0.0161 0.390499,0.0161 0.148954,0 0.255637,-0.006 l 0.134863,-0.01007 q 0.03824,-0.002 0.05032,-0.002 0.05435,0 0.05435,0.03824 0,0.03623 -0.05233,0.05435 l -0.10467,0.04026 q -0.148953,0.05636 -0.148953,0.48108 z m 2.149761,-0.642111 q 0.630033,0 1.03261,0.3905 0.40459,0.388487 0.40459,0.996378 0,0.644124 -0.406603,1.056765 -0.406603,0.412642 -1.040662,0.412642 -0.650162,0 -1.052739,-0.394526 -0.400564,-0.394525 -0.400564,-1.034623 0,-0.277778 0.10467,-0.549518 0.106683,-0.273752 0.28583,-0.456925 0.189211,-0.193237 0.479066,-0.305958 0.289856,-0.114735 0.593802,-0.114735 z m -0.130838,0.130838 q -0.466989,0 -0.742755,0.316023 -0.273752,0.31401 -0.273752,0.847425 0,0.609904 0.350242,1.028584 0.352255,0.41868 0.863528,0.41868 0.466989,0 0.770935,-0.340177 0.303946,-0.342191 0.303946,-0.865541 0,-0.601853 -0.364332,-1.002417 -0.364333,-0.402577 -0.907812,-0.402577 z m 3.528589,2.493965 q -0.59984,-0.460951 -0.59984,-1.177538 0,-0.57166 0.3281,-0.972224 0.3905,-0.475041 1.099036,-0.475041 0.62802,0 1.022546,0.396539 0.396538,0.396538 0.396538,1.028584 0,0.406603 -0.183172,0.742755 -0.183173,0.336152 -0.501209,0.517312 -0.203301,0.112721 -0.477054,0.167069 0.203302,0.102657 0.283817,0.150967 l 0.187199,0.122786 0.152979,0.09863 q 0.177134,0.112722 0.287842,0.112722 0.169083,0 0.293882,-0.06844 0.03623,-0.02013 0.05636,-0.02214 0.03422,-0.002 0.03623,0.03019 0.004,0.07448 -0.191224,0.154992 -0.193237,0.08253 -0.372383,0.08253 -0.241547,0 -0.569647,-0.191225 -0.293881,-0.171095 -0.346216,-0.199275 l -0.338165,-0.179147 q -0.301933,-0.159018 -0.442835,-0.159018 -0.122786,0 -0.225443,0.09863 -0.102657,0.09863 -0.124799,0.239534 -0.01208,0.07246 -0.04831,0.07246 -0.05233,0 -0.04831,-0.06441 0.0081,-0.154992 0.102657,-0.305958 0.09662,-0.150967 0.221418,-0.201289 z m 0.708536,-2.508055 q -0.438809,0 -0.712562,0.320048 -0.273752,0.318036 -0.273752,0.829309 0,0.740742 0.464976,1.165461 0.348229,0.316023 0.778987,0.316023 0.442835,0 0.714574,-0.311997 0.273753,-0.311997 0.273753,-0.817232 0,-0.626007 -0.364332,-1.062803 -0.36232,-0.438809 -0.881644,-0.438809 z m 4.327705,1.52778 v -1.042675 q 0,-0.251611 -0.07246,-0.364332 -0.07246,-0.114735 -0.245572,-0.130838 -0.05837,-0.006 -0.05837,-0.04428 0,-0.04428 0.04026,-0.04227 0.04428,0.002 0.128824,0.0161 0.07649,0.01208 0.183173,0.01208 0.225443,0 0.277778,-0.006 0.07045,-0.006 0.08857,-0.006 0.03824,0 0.03824,0.03623 0,0.03019 -0.04227,0.04831 -0.122786,0.05032 -0.159018,0.140902 -0.03623,0.09058 -0.03623,0.342191 v 0.996378 q 0,0.549518 -0.219404,0.845412 -0.138889,0.187199 -0.398551,0.29992 -0.25765,0.110709 -0.551531,0.110709 -0.342191,0 -0.615943,-0.132851 -0.273753,-0.13285 -0.400564,-0.360306 -0.142915,-0.261675 -0.142915,-0.682368 v -1.022546 l -0.004,-0.114735 q 0,-0.215378 -0.06039,-0.295894 -0.05837,-0.08253 -0.23752,-0.108696 -0.05435,-0.0081 -0.05435,-0.04227 0,-0.04831 0.07649,-0.04831 0.05032,0 0.138889,0.004 0.09259,0.006 0.134863,0.006 l 0.154992,-0.002 h 0.15298 q 0.02415,0 0.112721,-0.0081 0.07448,-0.006 0.102657,-0.006 0.0463,0 0.0463,0.03221 0,0.03824 -0.06441,0.05032 -0.116747,0.02617 -0.157005,0.102657 -0.03824,0.07448 -0.03824,0.269727 l 0.004,0.13285 v 1.014495 q 0,0.519324 0.161031,0.740742 0.227456,0.31401 0.762884,0.31401 0.479067,0 0.716587,-0.261675 0.237521,-0.263688 0.237521,-0.793077 z m 1.986716,0.10467 h -0.728664 q -0.148954,0 -0.185186,0.02415 -0.03623,0.02415 -0.09662,0.161031 l -0.130838,0.295894 q -0.08857,0.203302 -0.08857,0.301933 0,0.09461 0.0463,0.136877 0.04831,0.04227 0.187198,0.07246 0.06039,0.01208 0.0624,0.04831 0.002,0.03422 -0.05636,0.03422 -0.02214,0 -0.06844,-0.002 l -0.193238,-0.01006 q -0.09662,-0.004 -0.22343,-0.004 -0.05837,0 -0.09058,0.002 -0.102657,0.0081 -0.112721,0.0081 -0.05435,0 -0.05435,-0.03623 0,-0.03221 0.03422,-0.04227 l 0.07448,-0.02214 q 0.04026,-0.01208 0.108695,-0.09662 0.06844,-0.08655 0.112722,-0.179147 l 0.05837,-0.13285 1.034623,-2.296703 q 0.02617,-0.06039 0.05837,-0.06039 0.03221,0 0.05435,0.05837 l 0.86554,2.214174 0.04428,0.108696 q 0.09461,0.243559 0.157005,0.303945 0.0624,0.05837 0.253624,0.09259 0.0624,0.01208 0.06039,0.05032 -0.002,0.03422 -0.05636,0.03422 -0.01812,0 -0.07649,-0.004 -0.10467,-0.01007 -0.372384,-0.01007 -0.279791,0 -0.350242,0.01208 -0.04227,0.0081 -0.0624,0.0081 -0.05233,0 -0.05233,-0.04227 0,-0.03221 0.05032,-0.04227 l 0.0624,-0.01409 q 0.100644,-0.02013 0.100644,-0.136877 0,-0.106683 -0.122786,-0.424719 l -0.100644,-0.2657 q -0.04227,-0.110709 -0.06643,-0.126812 -0.02416,-0.01812 -0.136877,-0.01812 z m 0.02416,-0.322062 -0.316023,-0.797103 -0.0161,-0.04227 q -0.02416,-0.06441 -0.05233,-0.06643 -0.01409,-0.002 -0.03221,0.03824 l -0.392513,0.87158 q -0.02617,0.05636 -0.02617,0.07448 0,0.05233 0.09259,0.05233 l 0.05435,0.002 h 0.607892 q 0.100644,0 0.100644,-0.05032 0,-0.01409 -0.01006,-0.0463 z m 1.906199,-0.785025 v 1.505638 q 0,0.281804 0.03422,0.372384 0.04026,0.102657 0.09863,0.144928 0.06039,0.04227 0.187198,0.06039 0.100645,0.01409 0.100645,0.05032 0,0.04831 -0.0624,0.04831 -0.03019,0 -0.07649,-0.006 -0.0624,-0.0081 -0.213366,-0.0081 l -0.291869,-0.004 -0.23752,0.01409 q -0.05837,0.006 -0.09662,0.006 -0.05435,0 -0.05435,-0.04227 0,-0.03623 0.0624,-0.0463 0.152979,-0.02617 0.197263,-0.10467 0.04428,-0.08052 0.04428,-0.336152 v -1.72303 q 0,-0.249598 -0.05837,-0.336152 -0.05636,-0.08655 -0.243559,-0.116748 -0.0624,-0.01208 -0.06441,-0.04831 -0.002,-0.04428 0.05837,-0.04428 0.0161,0 0.03623,0.002 0.146941,0.0161 0.3905,0.0161 0.148954,0 0.255637,-0.006 l 0.134863,-0.01007 q 0.03824,-0.002 0.05032,-0.002 0.05435,0 0.05435,0.03824 0,0.03623 -0.05233,0.05435 l -0.10467,0.04026 q -0.148952,0.05635 -0.148952,0.481072 z m 3.13205,0.183172 v 1.686798 q 0,0.227457 -0.01006,0.277779 -0.01006,0.04831 -0.05636,0.0463 -0.03019,-0.002 -0.0463,-0.01812 l -0.04428,-0.05233 -1.696863,-1.940422 -0.02013,-0.02214 q -0.01208,-0.01208 -0.02818,-0.01208 -0.03825,0 -0.03825,0.09058 v 1.364737 l -0.002,0.08454 0.006,0.142915 q 0.01409,0.13285 0.06844,0.183172 0.05435,0.05032 0.213366,0.07448 0.06643,0.0081 0.06643,0.05233 0,0.04026 -0.04227,0.04026 -0.02818,0 -0.06039,-0.004 -0.02214,-0.004 -0.175121,-0.01208 l -0.205315,-0.01006 -0.09662,0.004 q -0.0785,0 -0.148954,0.01006 -0.05233,0.0081 -0.07448,0.0081 -0.05233,0 -0.05636,-0.03825 -0.002,-0.03019 0.05636,-0.05032 0.169082,-0.05837 0.227456,-0.154992 0.06039,-0.09863 0.06039,-0.316023 v -1.368762 q 0,-0.34823 -0.110709,-0.547505 -0.110708,-0.201289 -0.320048,-0.229469 -0.05435,-0.0081 -0.05435,-0.0463 0,-0.03825 0.04428,-0.03825 0.01006,0 0.03221,0.002 l 0.08253,0.002 0.134863,0.004 0.03221,-0.002 q 0.04831,-0.002 0.07448,-0.002 0.05032,0 0.100644,0.05837 l 1.851855,2.097427 q 0.04428,0.05032 0.05636,0.04831 0.02013,-0.002 0.02214,-0.03825 v -0.996378 l 0.002,-0.27174 -0.02415,-0.462963 q -0.02013,-0.171096 -0.100644,-0.241547 -0.0785,-0.07246 -0.28583,-0.106683 -0.05837,-0.01006 -0.05837,-0.05032 0,-0.03824 0.05837,-0.03824 0.02617,0 0.08454,0.006 0.138889,0.0161 0.372384,0.0161 0.124799,0 0.199276,-0.01208 0.06441,-0.01208 0.09863,-0.01208 0.05233,0 0.05636,0.04227 0.002,0.02617 -0.04026,0.03825 -0.122786,0.03019 -0.163044,0.100644 -0.03824,0.07045 -0.03824,0.263688 v 0.217392 z m 2.548313,-0.559582 h -0.565621 q -0.08857,0 -0.112722,0.02416 -0.02214,0.02415 -0.02214,0.11876 v 1.972628 l 0.002,0.0785 q 0.01006,0.235508 0.263688,0.279792 0.07045,0.01208 0.07045,0.0463 0,0.04428 -0.05636,0.04428 -0.02416,0 -0.09863,-0.01208 -0.03824,-0.006 -0.181159,-0.006 l -0.146941,-0.002 -0.157005,0.002 q -0.08454,0 -0.142915,0.006 -0.114734,0.01208 -0.134863,0.01208 -0.06039,0 -0.06039,-0.04428 0,-0.03221 0.06642,-0.04026 0.154993,-0.02013 0.209341,-0.08454 0.05435,-0.06643 0.05435,-0.235508 v -1.994769 l -0.002,-0.05233 q 0,-0.07246 -0.02214,-0.09259 -0.02013,-0.02013 -0.09662,-0.02013 h -0.533414 q -0.163044,0 -0.237521,0.06643 -0.07246,0.06441 -0.112722,0.245572 -0.01812,0.0785 -0.05435,0.07649 -0.03623,-0.002 -0.03623,-0.05435 0,-0.04227 0.02415,-0.154992 0.03019,-0.144928 0.03019,-0.239533 0,-0.09259 0.02013,-0.120774 0.02214,-0.03019 0.09058,-0.03019 h 2.165865 q 0.110709,0 0.132851,0.02416 0.02415,0.02415 0.02415,0.142915 0,0.11876 0.01006,0.173108 0.01006,0.06844 0.01208,0.09863 0.002,0.06039 -0.04227,0.06441 -0.03623,0.002 -0.04831,-0.0624 -0.02617,-0.142915 -0.08454,-0.185185 -0.05837,-0.04428 -0.227456,-0.04428 z"
         id="text10134"
         style="font-size:4.12239px;line-height:1.25;font-family:'Goudy Old Style';-inkscape-font-specification:'Goudy Old Style, Normal';display:inline;fill:#ffffff;stroke-width:0.0499911;fill-opacity:1"
         aria-label="STUDIO QUAINT"
         inkscape:label="SQ" />
    </g>
  </g>
</svg>
